<?xml version="1.0" encoding="utf-8"?>
<svg version="1.1" xmlns="http://www.w3.org/2000/svg" width="16" height="16" id="_OLSKSharedClone">
  <g id="_OLSKSharedClone-group2" clip-path="url(#_OLSKSharedClone-clip)">
    <clipPath id="_OLSKSharedClone-clip">
      <path d="M 12,0.44 C 12.51,0.61 12.87,0.95 13.04,1.41 13.06,1.47 13.06,1.47 13.07,1.51 13.14,1.78 13.15,1.95 13.15,2.53 13.15,2.72 13.15,2.72 13.15,3.5 L 13.15,4.15 12.5,4.15 5.03,4.15 C 4.57,4.15 4.47,4.16 4.35,4.19 4.34,4.19 4.34,4.19 4.33,4.19 4.28,4.21 4.21,4.28 4.19,4.35 4.19,4.34 4.19,4.34 4.19,4.35 4.16,4.47 4.15,4.57 4.15,5.03 4.15,6.08 4.15,6.08 4.15,9.25 4.15,11.08 4.15,11.08 4.15,12.5 L 4.15,13.15 3.5,13.15 2.53,13.15 C 1.9,13.15 1.73,13.14 1.47,13.05 0.98,12.88 0.63,12.54 0.46,12.09 0.36,11.77 0.35,11.59 0.35,10.97 L 0.35,2.53 0.35,2.53 C 0.35,1.9 0.36,1.73 0.45,1.47 0.62,0.98 0.96,0.63 1.41,0.46 1.73,0.36 1.91,0.35 2.52,0.35 L 10.97,0.35 10.97,0.35 C 11.6,0.35 12,0.44 12,0.44 Z M 12,0.44"/>
    </clipPath>
    <rect id="_OLSKSharedClone-rectangle" stroke="rgb(0, 0, 0)" stroke-width="1.3" fill="none" x="1" y="1" width="11.5" height="11.5" rx="1"/>
  </g>
  <rect id="_OLSKSharedClone-rectangle2" stroke="rgb(0, 0, 0)" stroke-width="1.3" fill="none" x="3.5" y="3.5" width="11.5" height="11.5" rx="1"/>
</svg>